<svg width="524" height="123" viewBox="0 0 524 123" fill="none" xmlns="http://www.w3.org/2000/svg">
<path d="M189.108 94H167.214L154.586 55.296L142.204 94H123.262L144.5 36.6H167.952L189.108 94ZM237.173 94V58.986L211.671 94H192.237V36.6H208.555V66.858L230.859 36.6H253.491V94H237.173ZM261.184 36.6H281.356V57.592H301.774V36.6H322.028V94H301.774V70.384H281.356V94H261.184V36.6ZM348.919 94C348.208 83.6133 346.104 75.0033 342.605 68.17C339.106 61.282 334.214 55.1593 327.927 49.802V36.6H383.195V50.622H345.311C352.418 55.706 358.24 61.692 362.777 68.58C367.369 75.468 370.048 83.9413 370.813 94H348.919ZM389.229 36.6H428.507C435.176 36.6 440.26 38.0213 443.759 40.864C447.258 43.652 449.007 47.26 449.007 51.688C449.007 54.7493 448.16 57.346 446.465 59.478C444.825 61.5553 442.556 63.086 439.659 64.07C442.994 65.054 445.672 66.7213 447.695 69.072C449.772 71.368 450.811 74.402 450.811 78.174C450.811 82.93 449.062 86.7567 445.563 89.654C442.119 92.5513 437.035 94 430.311 94H389.229V36.6ZM423.833 82.438C426.02 82.438 427.714 81.864 428.917 80.716C430.12 79.568 430.721 78.01 430.721 76.042C430.721 74.1833 430.092 72.7073 428.835 71.614C427.632 70.466 425.965 69.892 423.833 69.892H409.073V82.438H423.833ZM422.931 58.904C424.899 58.904 426.43 58.412 427.523 57.428C428.616 56.3893 429.163 54.9953 429.163 53.246C429.163 51.606 428.616 50.294 427.523 49.31C426.43 48.2713 424.899 47.752 422.931 47.752H409.073V58.904H422.931ZM487.824 95.066C477.164 95.066 468.937 92.4967 463.142 87.358C457.348 82.2193 454.45 74.9213 454.45 65.464C454.45 55.8427 457.32 48.4627 463.06 43.324C468.855 38.1307 477.11 35.534 487.824 35.534C498.484 35.534 506.712 38.076 512.506 43.16C518.301 48.1893 521.198 55.2413 521.198 64.316C521.198 74.2653 518.301 81.8913 512.506 87.194C506.766 92.442 498.539 95.066 487.824 95.066ZM476.672 65.218C476.672 71.122 477.684 75.4953 479.706 78.338C481.729 81.126 484.435 82.52 487.824 82.52C491.214 82.52 493.92 81.0713 495.942 78.174C497.965 75.2767 498.976 70.712 498.976 64.48C498.976 58.6853 497.965 54.4487 495.942 51.77C493.92 49.0367 491.214 47.67 487.824 47.67C484.38 47.67 481.647 49.064 479.624 51.852C477.656 54.64 476.672 59.0953 476.672 65.218Z" fill="#6DCE78"/>
<rect y="13" width="97" height="97" rx="25" fill="#6DCE78"/>
<path d="M43.4288 86C42.8915 78.1467 41.3002 71.6367 38.6548 66.47C36.0095 61.262 32.3102 56.6327 27.5568 52.582V42.6H69.3448V53.202H40.7008C46.0742 57.046 50.4762 61.572 53.9068 66.78C57.3788 71.988 59.4042 78.3947 59.9828 86H43.4288Z" fill="white"/>
</svg>
